<mxfile host="65bd71144e">
    <diagram id="AraKdrV8Pg6dsUEGMb9t" name="Page-1">
        <mxGraphModel dx="1709" dy="1762" grid="1" gridSize="10" guides="1" tooltips="1" connect="1" arrows="1" fold="1" page="1" pageScale="1" pageWidth="850" pageHeight="1100" math="0" shadow="0">
            <root>
                <mxCell id="0"/>
                <mxCell id="1" parent="0"/>
                <mxCell id="2" value="&lt;p style=&quot;margin:0px;margin-top:4px;text-align:center;&quot;&gt;&lt;b&gt;Node&amp;lt;K, T&amp;gt;&lt;/b&gt;&lt;/p&gt;&lt;p style=&quot;margin:0px;margin-left:4px;&quot;&gt;&lt;br&gt;&lt;/p&gt;&lt;p style=&quot;margin:0px;margin-left:4px;&quot;&gt;+ data: T&lt;/p&gt;&lt;p style=&quot;margin:0px;margin-left:4px;&quot;&gt;+ key: K&lt;/p&gt;&lt;p style=&quot;margin:0px;margin-left:4px;&quot;&gt;+ next: Node&lt;/p&gt;&lt;p style=&quot;margin:0px;margin-left:4px;&quot;&gt;&lt;br&gt;&lt;/p&gt;&lt;p style=&quot;margin:0px;margin-left:4px;&quot;&gt;+ getNext(): Node&lt;/p&gt;&lt;p style=&quot;margin:0px;margin-left:4px;&quot;&gt;+ setNext(x: Node&amp;lt;K, T&amp;gt;): void&lt;/p&gt;" style="verticalAlign=top;align=left;overflow=fill;fontSize=12;fontFamily=Helvetica;html=1;" parent="1" vertex="1">
                    <mxGeometry x="-435" y="500" width="180" height="210" as="geometry"/>
                </mxCell>
                <mxCell id="4" value="&lt;p style=&quot;margin:0px;margin-top:4px;text-align:center;&quot;&gt;&lt;b&gt;SLList&lt;/b&gt;&lt;/p&gt;&lt;hr size=&quot;1&quot;&gt;&lt;p style=&quot;margin:0px;margin-left:4px;&quot;&gt;+ head: Nodo&amp;lt;K, T&amp;gt;&lt;/p&gt;" style="verticalAlign=top;align=left;overflow=fill;fontSize=12;fontFamily=Helvetica;html=1;" parent="1" vertex="1">
                    <mxGeometry x="-425" y="180" width="160" height="90" as="geometry"/>
                </mxCell>
                <mxCell id="5" value="&lt;p style=&quot;margin:0px;margin-top:4px;text-align:center;&quot;&gt;&lt;b&gt;DLList&lt;/b&gt;&lt;/p&gt;&lt;hr size=&quot;1&quot;&gt;&lt;p style=&quot;margin:0px;margin-left:4px;&quot;&gt;+ head: Nodo&amp;lt;K, T&amp;gt;&lt;/p&gt;" style="verticalAlign=top;align=left;overflow=fill;fontSize=12;fontFamily=Helvetica;html=1;" parent="1" vertex="1">
                    <mxGeometry x="-35" y="180" width="160" height="90" as="geometry"/>
                </mxCell>
                <mxCell id="6" value="&lt;p style=&quot;margin:0px;margin-top:4px;text-align:center;&quot;&gt;&lt;i&gt;&amp;lt;&amp;lt;Interface&amp;gt;&amp;gt;&lt;/i&gt;&lt;br&gt;&lt;b&gt;UVGList&amp;lt;K, T&amp;gt;&lt;/b&gt;&lt;/p&gt;&lt;hr size=&quot;1&quot;&gt;&lt;p style=&quot;margin:0px;margin-left:4px;&quot;&gt;+ add(Node&amp;lt;K, T&amp;gt; ): void&lt;br&gt;+ remove(K): void&lt;/p&gt;&lt;p style=&quot;margin:0px;margin-left:4px;&quot;&gt;+ search(K): Node&amp;lt;K, T&amp;gt;&lt;/p&gt;" style="verticalAlign=top;align=left;overflow=fill;fontSize=12;fontFamily=Helvetica;html=1;" parent="1" vertex="1">
                    <mxGeometry x="-250" y="-10" width="190" height="140" as="geometry"/>
                </mxCell>
                <mxCell id="7" value="&lt;p style=&quot;margin:0px;margin-top:4px;text-align:center;&quot;&gt;&lt;b&gt;Node&amp;lt;K, T&amp;gt;&lt;/b&gt;&lt;/p&gt;&lt;p style=&quot;margin:0px;margin-left:4px;&quot;&gt;&lt;br&gt;&lt;/p&gt;&lt;p style=&quot;margin:0px;margin-left:4px;&quot;&gt;+ data: T&lt;/p&gt;&lt;p style=&quot;margin:0px;margin-left:4px;&quot;&gt;+ key: K&lt;/p&gt;&lt;p style=&quot;margin:0px;margin-left:4px;&quot;&gt;+ next: Node&lt;/p&gt;&lt;p style=&quot;margin:0px;margin-left:4px;&quot;&gt;+ prev: Node&lt;/p&gt;&lt;hr size=&quot;1&quot;&gt;&lt;p style=&quot;margin:0px;margin-left:4px;&quot;&gt;&lt;span style=&quot;background-color: initial;&quot;&gt;+ getNext(): Node&lt;/span&gt;&lt;br&gt;&lt;/p&gt;&lt;p style=&quot;margin:0px;margin-left:4px;&quot;&gt;+ setNext(x: Node&amp;lt;K, T&amp;gt;): void&lt;/p&gt;&lt;p style=&quot;margin: 0px 0px 0px 4px;&quot;&gt;+ getPrev(): Node&lt;/p&gt;&lt;p style=&quot;margin: 0px 0px 0px 4px;&quot;&gt;+ setPrev(x: Node&amp;lt;K, T&amp;gt;): void&lt;/p&gt;" style="verticalAlign=top;align=left;overflow=fill;fontSize=12;fontFamily=Helvetica;html=1;" parent="1" vertex="1">
                    <mxGeometry x="-50" y="510" width="190" height="210" as="geometry"/>
                </mxCell>
                <mxCell id="10" value="&lt;p style=&quot;margin:0px;margin-top:4px;text-align:center;&quot;&gt;&lt;i&gt;&amp;lt;&amp;lt;Interface&amp;gt;&amp;gt;&lt;/i&gt;&lt;br&gt;&lt;b&gt;UVGStack&amp;lt;T&amp;gt;&lt;/b&gt;&lt;/p&gt;&lt;hr size=&quot;1&quot;&gt;&lt;p style=&quot;margin:0px;margin-left:4px;&quot;&gt;+ push(T): void&lt;br&gt;+ pop(): T&lt;/p&gt;&lt;p style=&quot;margin:0px;margin-left:4px;&quot;&gt;+ top(): T&lt;/p&gt;&lt;p style=&quot;margin:0px;margin-left:4px;&quot;&gt;+ isEmpty(): boolean&lt;/p&gt;&lt;p style=&quot;margin:0px;margin-left:4px;&quot;&gt;&lt;br&gt;&lt;/p&gt;" style="verticalAlign=top;align=left;overflow=fill;fontSize=12;fontFamily=Helvetica;html=1;" parent="1" vertex="1">
                    <mxGeometry x="-35" y="-540" width="190" height="140" as="geometry"/>
                </mxCell>
                <mxCell id="11" value="&lt;p style=&quot;margin:0px;margin-top:4px;text-align:center;&quot;&gt;&lt;b&gt;ArrayListStack&lt;/b&gt;&lt;/p&gt;&lt;hr size=&quot;1&quot;&gt;&lt;p style=&quot;margin:0px;margin-left:4px;&quot;&gt;+ arr: ArrayList&amp;lt;T&amp;gt;&lt;/p&gt;" style="verticalAlign=top;align=left;overflow=fill;fontSize=12;fontFamily=Helvetica;html=1;" parent="1" vertex="1">
                    <mxGeometry x="200" y="-340" width="160" height="90" as="geometry"/>
                </mxCell>
                <mxCell id="12" value="&lt;p style=&quot;margin:0px;margin-top:4px;text-align:center;&quot;&gt;&lt;b&gt;VectorStack&lt;/b&gt;&lt;/p&gt;&lt;hr size=&quot;1&quot;&gt;&lt;p style=&quot;margin:0px;margin-left:4px;&quot;&gt;+ vector: Vector&amp;lt;T&amp;gt;&lt;/p&gt;" style="verticalAlign=top;align=left;overflow=fill;fontSize=12;fontFamily=Helvetica;html=1;" parent="1" vertex="1">
                    <mxGeometry x="-20" y="-340" width="160" height="90" as="geometry"/>
                </mxCell>
                <mxCell id="13" value="&lt;p style=&quot;margin:0px;margin-top:4px;text-align:center;&quot;&gt;&lt;b&gt;LinkedListStack&lt;/b&gt;&lt;/p&gt;&lt;hr size=&quot;1&quot;&gt;&lt;p style=&quot;margin:0px;margin-left:4px;&quot;&gt;+ list: UVGList&amp;lt;K, T&amp;gt;&lt;/p&gt;" style="verticalAlign=top;align=left;overflow=fill;fontSize=12;fontFamily=Helvetica;html=1;" parent="1" vertex="1">
                    <mxGeometry x="-235" y="-340" width="160" height="90" as="geometry"/>
                </mxCell>
                <mxCell id="14" value="&lt;p style=&quot;margin:0px;margin-top:4px;text-align:center;&quot;&gt;&lt;b&gt;LinkedListFactory&amp;lt;K, T&amp;gt;&lt;/b&gt;&lt;/p&gt;&lt;p style=&quot;margin:0px;margin-left:4px;&quot;&gt;&lt;br&gt;&lt;/p&gt;&lt;hr size=&quot;1&quot;&gt;&lt;p style=&quot;margin:0px;margin-left:4px;&quot;&gt;+ createList(T, String): UVGList&amp;lt;T&amp;gt;&lt;/p&gt;" style="verticalAlign=top;align=left;overflow=fill;fontSize=12;fontFamily=Helvetica;html=1;" parent="1" vertex="1">
                    <mxGeometry x="-305" y="-190" width="300" height="90" as="geometry"/>
                </mxCell>
                <mxCell id="15" value="&lt;p style=&quot;margin:0px;margin-top:4px;text-align:center;&quot;&gt;&lt;b&gt;StackFactory&amp;lt;T&amp;gt;&lt;/b&gt;&lt;/p&gt;&lt;p style=&quot;margin:0px;margin-left:4px;&quot;&gt;&lt;br&gt;&lt;/p&gt;&lt;hr size=&quot;1&quot;&gt;&lt;p style=&quot;margin:0px;margin-left:4px;&quot;&gt;+ createList(T, String): UVGStack&amp;lt;T&amp;gt;&lt;/p&gt;" style="verticalAlign=top;align=left;overflow=fill;fontSize=12;fontFamily=Helvetica;html=1;" parent="1" vertex="1">
                    <mxGeometry x="-90" y="-695" width="300" height="90" as="geometry"/>
                </mxCell>
                <mxCell id="16" value="&lt;p style=&quot;margin:0px;margin-top:4px;text-align:center;&quot;&gt;&lt;b&gt;App&lt;/b&gt;&lt;/p&gt;&lt;hr size=&quot;1&quot;&gt;&lt;p style=&quot;margin:0px;margin-left:4px;&quot;&gt;+ main(String[]): void&lt;/p&gt;" style="verticalAlign=top;align=left;overflow=fill;fontSize=12;fontFamily=Helvetica;html=1;" parent="1" vertex="1">
                    <mxGeometry x="-630" y="-805" width="160" height="90" as="geometry"/>
                </mxCell>
                <mxCell id="17" value="&lt;p style=&quot;margin:0px;margin-top:4px;text-align:center;&quot;&gt;&lt;b&gt;FileManager&lt;/b&gt;&lt;/p&gt;&lt;hr size=&quot;1&quot;&gt;&lt;p style=&quot;margin:0px;margin-left:4px;&quot;&gt;+ readTXTFile(String): ArrayList&amp;lt;String&amp;gt;&lt;/p&gt;&lt;p style=&quot;margin:0px;margin-left:4px;&quot;&gt;+writeTXTFile(ArrayList&amp;lt;String&amp;gt;, String, boolean): void&lt;/p&gt;" style="verticalAlign=top;align=left;overflow=fill;fontSize=12;fontFamily=Helvetica;html=1;" parent="1" vertex="1">
                    <mxGeometry x="-380" y="-920" width="320" height="90" as="geometry"/>
                </mxCell>
                <mxCell id="18" value="&lt;p style=&quot;margin:0px;margin-top:4px;text-align:center;&quot;&gt;&lt;b&gt;InfixConverter&lt;/b&gt;&lt;/p&gt;&lt;hr size=&quot;1&quot;&gt;&lt;p style=&quot;margin:0px;margin-left:4px;&quot;&gt;+ infixToPostfix(String): String&lt;/p&gt;" style="verticalAlign=top;align=left;overflow=fill;fontSize=12;fontFamily=Helvetica;html=1;" parent="1" vertex="1">
                    <mxGeometry x="-330" y="-800" width="190" height="80" as="geometry"/>
                </mxCell>
                <mxCell id="25" value="&lt;p style=&quot;margin:0px;margin-top:4px;text-align:center;&quot;&gt;&lt;b&gt;CalculatorPostFix&lt;/b&gt;&lt;/p&gt;&lt;p style=&quot;margin:0px;margin-top:4px;text-align:center;&quot;&gt;&lt;b&gt;&lt;br&gt;&lt;/b&gt;&lt;/p&gt;&lt;p style=&quot;margin:0px;margin-top:4px;text-align:center;&quot;&gt;+preference(char): int&lt;/p&gt;&lt;p style=&quot;margin:0px;margin-top:4px;text-align:center;&quot;&gt;&lt;span style=&quot;text-align: left;&quot;&gt;+ InfixToPostfix(String, String): int&lt;/span&gt;&lt;b&gt;&lt;br&gt;&lt;/b&gt;&lt;/p&gt;&lt;p style=&quot;margin:0px;margin-left:4px;&quot;&gt;&lt;br&gt;&lt;/p&gt;" style="verticalAlign=top;align=left;overflow=fill;fontSize=12;fontFamily=Helvetica;html=1;" parent="1" vertex="1">
                    <mxGeometry x="-330" y="-700" width="190" height="80" as="geometry"/>
                </mxCell>
                <mxCell id="30" value="" style="endArrow=block;dashed=1;endFill=0;endSize=12;html=1;exitX=0.5;exitY=0;exitDx=0;exitDy=0;entryX=0;entryY=0.5;entryDx=0;entryDy=0;" parent="1" source="4" target="6" edge="1">
                    <mxGeometry width="160" relative="1" as="geometry">
                        <mxPoint x="-300" y="140" as="sourcePoint"/>
                        <mxPoint x="-140" y="140" as="targetPoint"/>
                        <Array as="points">
                            <mxPoint x="-345" y="60"/>
                            <mxPoint x="-280" y="60"/>
                        </Array>
                    </mxGeometry>
                </mxCell>
                <mxCell id="31" value="" style="endArrow=block;dashed=1;endFill=0;endSize=12;html=1;entryX=1;entryY=0.5;entryDx=0;entryDy=0;exitX=0.5;exitY=0;exitDx=0;exitDy=0;" parent="1" target="6" edge="1" source="5">
                    <mxGeometry width="160" relative="1" as="geometry">
                        <mxPoint x="-30" y="180" as="sourcePoint"/>
                        <mxPoint x="130" y="180" as="targetPoint"/>
                        <Array as="points">
                            <mxPoint x="45" y="60"/>
                        </Array>
                    </mxGeometry>
                </mxCell>
                <mxCell id="34" value="" style="endArrow=block;dashed=1;endFill=0;endSize=12;html=1;exitX=0.5;exitY=0;exitDx=0;exitDy=0;entryX=0;entryY=0.5;entryDx=0;entryDy=0;" parent="1" source="13" target="10" edge="1">
                    <mxGeometry width="160" relative="1" as="geometry">
                        <mxPoint x="-140" y="-420" as="sourcePoint"/>
                        <mxPoint x="20" y="-420" as="targetPoint"/>
                        <Array as="points">
                            <mxPoint x="-155" y="-470"/>
                        </Array>
                    </mxGeometry>
                </mxCell>
                <mxCell id="35" value="" style="endArrow=block;dashed=1;endFill=0;endSize=12;html=1;exitX=0.5;exitY=0;exitDx=0;exitDy=0;entryX=1;entryY=0.5;entryDx=0;entryDy=0;" parent="1" source="11" target="10" edge="1">
                    <mxGeometry width="160" relative="1" as="geometry">
                        <mxPoint x="280" y="-350" as="sourcePoint"/>
                        <mxPoint x="180" y="-470" as="targetPoint"/>
                        <Array as="points">
                            <mxPoint x="280" y="-470"/>
                        </Array>
                    </mxGeometry>
                </mxCell>
                <mxCell id="36" value="" style="endArrow=block;dashed=1;endFill=0;endSize=12;html=1;exitX=0.5;exitY=0;exitDx=0;exitDy=0;entryX=0.5;entryY=1;entryDx=0;entryDy=0;" parent="1" source="12" target="10" edge="1">
                    <mxGeometry width="160" relative="1" as="geometry">
                        <mxPoint x="40" y="-360" as="sourcePoint"/>
                        <mxPoint x="200" y="-360" as="targetPoint"/>
                    </mxGeometry>
                </mxCell>
                <mxCell id="43" value="" style="endArrow=open;endFill=1;endSize=12;html=1;exitX=0.5;exitY=1;exitDx=0;exitDy=0;entryX=0.5;entryY=0;entryDx=0;entryDy=0;" parent="1" source="14" target="6" edge="1">
                    <mxGeometry width="160" relative="1" as="geometry">
                        <mxPoint x="-170" y="-50" as="sourcePoint"/>
                        <mxPoint x="-10" y="-50" as="targetPoint"/>
                    </mxGeometry>
                </mxCell>
                <mxCell id="45" value="" style="endArrow=open;endFill=1;endSize=12;html=1;exitX=0.5;exitY=1;exitDx=0;exitDy=0;entryX=0.5;entryY=0;entryDx=0;entryDy=0;" parent="1" source="13" target="14" edge="1">
                    <mxGeometry width="160" relative="1" as="geometry">
                        <mxPoint x="210" y="-170" as="sourcePoint"/>
                        <mxPoint x="370" y="-170" as="targetPoint"/>
                    </mxGeometry>
                </mxCell>
                <mxCell id="47" value="&lt;p style=&quot;margin:0px;margin-top:4px;text-align:center;&quot;&gt;&lt;i&gt;&amp;lt;&amp;lt;Interface&amp;gt;&amp;gt;&lt;/i&gt;&lt;br&gt;&lt;b&gt;UVGNode&amp;lt;K, T&amp;gt;&lt;/b&gt;&lt;/p&gt;&lt;hr size=&quot;1&quot;&gt;&lt;p style=&quot;margin:0px;margin-left:4px;&quot;&gt;+ getKey(): K&lt;br&gt;+ getData(): T&lt;br&gt;&lt;/p&gt;" style="verticalAlign=top;align=left;overflow=fill;fontSize=12;fontFamily=Helvetica;html=1;" vertex="1" parent="1">
                    <mxGeometry x="-250" y="320" width="190" height="140" as="geometry"/>
                </mxCell>
                <mxCell id="49" value="1" style="endArrow=open;html=1;endSize=12;startArrow=diamondThin;startSize=14;startFill=1;edgeStyle=orthogonalEdgeStyle;align=left;verticalAlign=bottom;exitX=0.5;exitY=1;exitDx=0;exitDy=0;" edge="1" parent="1" source="4" target="2">
                    <mxGeometry x="-1" y="3" relative="1" as="geometry">
                        <mxPoint x="-300" y="360" as="sourcePoint"/>
                        <mxPoint x="-140" y="360" as="targetPoint"/>
                    </mxGeometry>
                </mxCell>
                <mxCell id="50" value="1" style="endArrow=open;html=1;endSize=12;startArrow=diamondThin;startSize=14;startFill=1;edgeStyle=orthogonalEdgeStyle;align=left;verticalAlign=bottom;exitX=0.5;exitY=1;exitDx=0;exitDy=0;entryX=0.5;entryY=0;entryDx=0;entryDy=0;" edge="1" parent="1" source="5" target="7">
                    <mxGeometry x="-1" y="3" relative="1" as="geometry">
                        <mxPoint x="40" y="360" as="sourcePoint"/>
                        <mxPoint x="200" y="360" as="targetPoint"/>
                    </mxGeometry>
                </mxCell>
                <mxCell id="51" value="" style="endArrow=block;dashed=1;endFill=0;endSize=12;html=1;exitX=0.75;exitY=0;exitDx=0;exitDy=0;entryX=0;entryY=0.5;entryDx=0;entryDy=0;" edge="1" parent="1" source="2" target="47">
                    <mxGeometry width="160" relative="1" as="geometry">
                        <mxPoint x="-220" y="530" as="sourcePoint"/>
                        <mxPoint x="-60" y="530" as="targetPoint"/>
                        <Array as="points">
                            <mxPoint x="-300" y="390"/>
                        </Array>
                    </mxGeometry>
                </mxCell>
                <mxCell id="52" value="" style="endArrow=block;dashed=1;endFill=0;endSize=12;html=1;exitX=0.25;exitY=0;exitDx=0;exitDy=0;entryX=1;entryY=0.5;entryDx=0;entryDy=0;" edge="1" parent="1" source="7" target="47">
                    <mxGeometry width="160" relative="1" as="geometry">
                        <mxPoint x="-20" y="460" as="sourcePoint"/>
                        <mxPoint x="140" y="460" as="targetPoint"/>
                        <Array as="points">
                            <mxPoint y="390"/>
                        </Array>
                    </mxGeometry>
                </mxCell>
            </root>
        </mxGraphModel>
    </diagram>
</mxfile>